<!-- icon666.com - MILLIONS vector ICONS FREE --><svg fill="none" viewBox="0 0 24 24" xmlns="http://www.w3.org/2000/svg"><g clip-rule="evenodd" fill="rgb(0,0,0)" fill-rule="evenodd"><path d="m12 20.5c4.6944 0 8.5-3.8056 8.5-8.5 0-4.69442-3.8056-8.5-8.5-8.5-4.69442 0-8.5 3.80558-8.5 8.5 0 4.6944 3.80558 8.5 8.5 8.5zm0 1.5c5.5228 0 10-4.4772 10-10 0-5.52285-4.4772-10-10-10-5.52285 0-10 4.47715-10 10 0 5.5228 4.47715 10 10 10z" fill="rgb(0,0,0)" style="fill: rgb(255, 255, 255);"></path><path d="m16.0303 10.2197c.2929.2929.2929.7677 0 1.0606l-3.5 3.5c-.2929.2929-.7677.2929-1.0606 0l-3.50003-3.5c-.29289-.2929-.29289-.7677 0-1.0606.29289-.29292.76777-.29292 1.06066 0l2.96967 2.9696 2.9697-2.9696c.2929-.29292.7677-.29292 1.0606 0z" fill="rgb(0,0,0)" style="fill: rgb(255, 255, 255);"></path></g></svg>