<!-- icon666.com - MILLIONS vector ICONS FREE --><svg viewBox="0 0 24 24" xmlns="http://www.w3.org/2000/svg"><g id="image"><g><path d="m19 4h-14c-1.654 0-3 1.346-3 3v10c0 1.654 1.346 3 3 3h14c1.654 0 3-1.346 3-3v-10c0-1.654-1.346-3-3-3zm-14 2h14c.551 0 1 .448 1 1v6.864l-2.823-2.353c-1.234-1.028-3.163-.939-4.298.195l-2.879 2.88-.879-.879c-1.17-1.17-3.072-1.17-4.242 0l-.879.879v-7.586c0-.552.449-1 1-1zm14 12h-14c-.429 0-.789-.274-.93-.655l2.223-2.224c.39-.389 1.024-.389 1.414 0l1.586 1.586c.391.391 1.023.391 1.414 0l3.586-3.586c.409-.409 1.158-.443 1.604-.072l4.103 3.42v.531c0 .552-.449 1-1 1z" fill="#000000" style="fill: rgb(63, 81, 181);"></path><path d="m7.5 12c1.378 0 2.5-1.121 2.5-2.5s-1.122-2.5-2.5-2.5-2.5 1.121-2.5 2.5 1.122 2.5 2.5 2.5zm0-3c.276 0 .5.225.5.5s-.224.5-.5.5-.5-.225-.5-.5.224-.5.5-.5z" fill="#000000" style="fill: rgb(63, 81, 181);"></path></g></g></svg>