<!-- icon666.com - MILLIONS vector ICONS FREE --><svg id="svg1144" viewBox="0 0 8.4666667 8.4666667" xmlns="http://www.w3.org/2000/svg" xmlns:svg="http://www.w3.org/2000/svg"><g id="layer2"><path id="path2591" d="m1.2557368-.0000016c-.69684192 0-1.2557369.56405999-1.2557369 1.25574v5.95312c0 .6999499.56406298 1.2578099 1.2557369 1.2578099h5.9531249c.7020099 0 1.2578051-.56613 1.2578051-1.2578099v-4.96093c0-.0697-.02874-.13623-.07803-.18552l-1.9843752-1.98438001c-.0498-.0498-.1171638-.07799999-.1875848-.07799999zm0 .52916999h.59583v1.32240001c0 .28858.23335.52916.529166.52916h2.3807338c.298917 0 .5296832-.24058.5296832-.52916v-1.32240001h.816488l1.829862 1.83038001v4.84931c0 .40767-.326136.72864-.7286381.72864h-.3302119v-3.17603c0-.29582-.2405851-.5291701-.529167-.5291701h-4.2323c-.297351 0-.529166.2405901-.529166.5291701v3.17603h-.33228c-.40766896 0-.72656992-.3292401-.72656992-.72864v-5.95312c0-.39744001.31890096-.72657001.72656992-.72657001zm1.124996 0h2.3807338v1.32240001h-2.3807338zm-.26355 4.23333001 4.232817-.001v3.17603h-4.232817zm1.318266.79013c-.1453121.003-.259415.1223499-.259415.2676898v1.0583302c0 .3543998.5291659.3543998.5291659 0v-1.0583302c0-.1493898-.1203928-.2706-.2697509-.2676898zm1.588017 0c-.1463249.00201-.263706.1213699-.2619992.2676898.00151.1248402 0 .7055501 0 1.0583302 0 .35312.5296832.35312.5296832 0 0-.3527801-.00151-.9321501 0-1.0583302.00169-.1485498-.1191321-.26928-.267684-.2676898z" font-variant-ligatures="normal" font-variant-position="normal" font-variant-caps="normal" font-variant-numeric="normal" font-variant-alternates="normal" font-feature-settings="normal" text-indent="0" text-align="start" text-decoration-line="none" text-decoration-style="solid" text-decoration-color="rgb(0,0,0)" text-transform="none" text-orientation="mixed" white-space="normal" shape-padding="0" isolation="auto" mix-blend-mode="normal" solid-color="rgb(0,0,0)" solid-opacity="1" vector-effect="none" fill="#000000" style="fill: rgb(255, 255, 255);"></path></g></svg>