<!-- icon666.com - MILLIONS vector ICONS FREE --><svg id="Layer_1" enable-background="new 0 0 29 29" viewBox="0 0 29 29" xmlns="http://www.w3.org/2000/svg"><g><path d="m14.5 27c-3.3 0-6.5-1.3-8.8-3.7-4.9-4.9-4.9-12.8 0-17.7 2.3-2.3 5.5-3.6 8.8-3.6s6.5 1.3 8.8 3.7c4.9 4.9 4.9 12.8 0 17.7-2.3 2.3-5.5 3.6-8.8 3.6zm0-23c-2.8 0-5.4 1.1-7.4 3.1s-3.1 4.6-3.1 7.4 1.1 5.4 3.1 7.4c4.1 4.1 10.8 4.1 14.9 0 2-2 3.1-4.6 3.1-7.4s-1.1-5.4-3.1-7.4-4.7-3.1-7.5-3.1z" fill="#000000" style="fill: rgb(255, 255, 255);"></path><path d="m19.1 17.8c-.3 0-.5-.1-.7-.3l-3.9-3.9-3.9 3.9c-.4.4-1 .4-1.4 0s-.4-1 0-1.4l4.6-4.6c.4-.4 1-.4 1.4 0l4.6 4.6c.4.4.4 1 0 1.4-.2.2-.4.3-.7.3z" fill="#000000" style="fill: rgb(255, 255, 255);"></path></g></svg>