<!-- icon666.com - MILLIONS vector ICONS FREE --><svg clip-rule="evenodd" fill-rule="evenodd" stroke-linejoin="round" stroke-miterlimit="2" viewBox="0 0 32 32" xmlns="http://www.w3.org/2000/svg"><g transform="translate(-222 -74)"><path d="m243.109 96.316 2.183 2.183c-.532 1.115-.337 2.492.587 3.415.623.623 1.353 1.354 1.976 1.977 1.171 1.17 3.069 1.17 4.24 0l.003-.003c1.17-1.171 1.17-3.069 0-4.24-.623-.623-1.354-1.353-1.977-1.976-.923-.924-2.299-1.12-3.415-.587l-2.2-2.2c1.74-2.102 2.787-4.799 2.787-7.739 0-6.703-5.443-12.146-12.147-12.146-6.703 0-12.146 5.443-12.146 12.146 0 6.704 5.443 12.147 12.146 12.147 3.045 0 5.83-1.123 7.963-2.977zm7.574 6.157-.002.003c-.39.39-1.022.39-1.412 0-.623-.623-1.353-1.353-1.976-1.976-.391-.391-.391-1.024 0-1.414.39-.391 1.024-.391 1.414 0 .623.623 1.354 1.353 1.976 1.976.39.39.39 1.022 0 1.411zm-15.537-25.473c5.6 0 10.147 4.546 10.147 10.146s-4.547 10.147-10.147 10.147-10.146-4.547-10.146-10.147 4.546-10.146 10.146-10.146zm-4.146 11h8c.552 0 1-.448 1-1s-.448-1-1-1h-8c-.552 0-1 .448-1 1s.448 1 1 1z" fill="#000000" style="fill: rgb(255, 255, 255);"></path></g></svg>  