<!-- icon666.com - MILLIONS vector ICONS FREE --><svg clip-rule="evenodd" fill-rule="evenodd" stroke-linejoin="round" stroke-miterlimit="2" viewBox="0 0 32 32" xmlns="http://www.w3.org/2000/svg"><g transform="translate(-185 -74)"><path d="m198.166 75h-.02c-6.703 0-12.146 5.443-12.146 12.146 0 6.704 5.443 12.147 12.146 12.147h.02c3.038-.005 5.815-1.127 7.943-2.977l2.183 2.183c-.532 1.115-.337 2.492.587 3.415.623.623 1.353 1.354 1.976 1.977 1.171 1.17 3.069 1.17 4.24 0l.003-.003c1.17-1.171 1.17-3.069 0-4.24-.623-.623-1.354-1.353-1.977-1.976-.923-.924-2.299-1.12-3.415-.587l-2.2-2.2c1.74-2.102 2.787-4.799 2.787-7.739 0-6.697-5.432-12.135-12.127-12.146zm15.517 27.473-.002.003c-.39.39-1.022.39-1.412 0-.623-.623-1.353-1.353-1.976-1.976-.391-.391-.391-1.024 0-1.414.39-.391 1.024-.391 1.414 0 .623.623 1.354 1.353 1.976 1.976.39.39.39 1.022 0 1.411zm-15.537-25.473h.033c5.586.018 10.114 4.558 10.114 10.146 0 5.589-4.528 10.129-10.114 10.147h-.033c-5.6 0-10.146-4.547-10.146-10.147s4.546-10.146 10.146-10.146zm.007 5h-.007c-.551 0-1 .448-1 1v3h-3.146c-.552 0-1 .448-1 1s.448 1 1 1h3.146v3c0 .552.449 1 1 1h.007c.549-.003.993-.45.993-1v-3h2.854.006c.549-.003.994-.45.994-1 0-.552-.448-1-1-1h-2.854v-3c0-.55-.444-.997-.993-1z" fill="#000000" style="fill: rgb(255, 255, 255);"></path></g></svg>